<mxfile host="app.diagrams.net" agent="Mozilla/5.0 (Windows NT 10.0; Win64; x64) AppleWebKit/537.36 (KHTML, like Gecko) Chrome/136.0.0.0 Safari/537.36" version="27.0.6">
  <diagram name="第 1 页" id="rrxj2fm6b4-7UegRH50n">
    <mxGraphModel dx="461" dy="521" grid="1" gridSize="10" guides="1" tooltips="1" connect="1" arrows="1" fold="1" page="1" pageScale="1" pageWidth="827" pageHeight="1169" math="0" shadow="0">
      <root>
        <mxCell id="0" />
        <mxCell id="1" parent="0" />
        <mxCell id="AzOrKp5qiF-kefRcxg_7-12" value="編輯個人資料" style="rounded=1;arcSize=10;whiteSpace=wrap;html=1;align=center;" vertex="1" parent="1">
          <mxGeometry x="460" y="280" width="80" height="35" as="geometry" />
        </mxCell>
        <mxCell id="AzOrKp5qiF-kefRcxg_7-13" value="" style="ellipse;html=1;shape=startState;fillColor=#000000;strokeColor=#ff0000;" vertex="1" parent="1">
          <mxGeometry x="70" y="40" width="30" height="30" as="geometry" />
        </mxCell>
        <mxCell id="AzOrKp5qiF-kefRcxg_7-14" value="" style="edgeStyle=orthogonalEdgeStyle;html=1;verticalAlign=bottom;endArrow=open;endSize=8;strokeColor=#ff0000;rounded=0;" edge="1" source="AzOrKp5qiF-kefRcxg_7-13" parent="1">
          <mxGeometry relative="1" as="geometry">
            <mxPoint x="85" y="130" as="targetPoint" />
          </mxGeometry>
        </mxCell>
        <mxCell id="AzOrKp5qiF-kefRcxg_7-15" value="Google登入" style="shape=note;size=20;whiteSpace=wrap;html=1;" vertex="1" parent="1">
          <mxGeometry x="160" y="40" width="110" height="32" as="geometry" />
        </mxCell>
        <mxCell id="AzOrKp5qiF-kefRcxg_7-21" value="驗證中" style="swimlane;childLayout=stackLayout;horizontal=1;startSize=20;horizontalStack=0;rounded=1;fontSize=14;fontStyle=0;strokeWidth=2;resizeParent=0;resizeLast=1;shadow=0;dashed=0;align=center;arcSize=4;whiteSpace=wrap;html=1;" vertex="1" parent="1">
          <mxGeometry x="25" y="140" width="120" height="60" as="geometry" />
        </mxCell>
        <mxCell id="AzOrKp5qiF-kefRcxg_7-23" value="entry/驗證使用者身分" style="text;html=1;align=center;verticalAlign=middle;resizable=0;points=[];autosize=1;strokeColor=none;fillColor=none;" vertex="1" parent="AzOrKp5qiF-kefRcxg_7-21">
          <mxGeometry y="20" width="120" height="40" as="geometry" />
        </mxCell>
        <mxCell id="AzOrKp5qiF-kefRcxg_7-24" value="重新登入" style="rounded=1;arcSize=10;whiteSpace=wrap;html=1;align=center;" vertex="1" parent="1">
          <mxGeometry x="210" y="156" width="100" height="40" as="geometry" />
        </mxCell>
        <mxCell id="AzOrKp5qiF-kefRcxg_7-25" value="登出狀態" style="rounded=1;arcSize=10;whiteSpace=wrap;html=1;align=center;" vertex="1" parent="1">
          <mxGeometry x="25" y="275" width="100" height="40" as="geometry" />
        </mxCell>
        <mxCell id="AzOrKp5qiF-kefRcxg_7-27" value="登出狀態" style="swimlane;childLayout=stackLayout;horizontal=1;startSize=20;horizontalStack=0;rounded=1;fontSize=14;fontStyle=0;strokeWidth=2;resizeParent=0;resizeLast=1;shadow=0;dashed=0;align=center;arcSize=4;whiteSpace=wrap;html=1;" vertex="1" parent="1">
          <mxGeometry x="200" y="360" width="170" height="60" as="geometry" />
        </mxCell>
        <mxCell id="AzOrKp5qiF-kefRcxg_7-28" value="entry/清除使用者驗證相關資訊" style="text;html=1;align=center;verticalAlign=middle;resizable=0;points=[];autosize=1;strokeColor=none;fillColor=none;" vertex="1" parent="AzOrKp5qiF-kefRcxg_7-27">
          <mxGeometry y="20" width="170" height="40" as="geometry" />
        </mxCell>
        <mxCell id="AzOrKp5qiF-kefRcxg_7-30" value="" style="endArrow=none;dashed=1;html=1;rounded=0;exitX=1;exitY=0.5;exitDx=0;exitDy=0;entryX=0;entryY=0.5;entryDx=0;entryDy=0;entryPerimeter=0;" edge="1" parent="1" source="AzOrKp5qiF-kefRcxg_7-13" target="AzOrKp5qiF-kefRcxg_7-15">
          <mxGeometry width="50" height="50" relative="1" as="geometry">
            <mxPoint x="180" y="260" as="sourcePoint" />
            <mxPoint x="230" y="210" as="targetPoint" />
          </mxGeometry>
        </mxCell>
        <mxCell id="AzOrKp5qiF-kefRcxg_7-31" value="" style="endArrow=classic;html=1;rounded=0;exitX=1.003;exitY=0.407;exitDx=0;exitDy=0;exitPerimeter=0;entryX=0;entryY=0.5;entryDx=0;entryDy=0;" edge="1" parent="1" source="AzOrKp5qiF-kefRcxg_7-23" target="AzOrKp5qiF-kefRcxg_7-24">
          <mxGeometry width="50" height="50" relative="1" as="geometry">
            <mxPoint x="180" y="260" as="sourcePoint" />
            <mxPoint x="230" y="210" as="targetPoint" />
          </mxGeometry>
        </mxCell>
        <mxCell id="AzOrKp5qiF-kefRcxg_7-32" value="" style="ellipse;html=1;shape=endState;fillColor=#000000;strokeColor=#ff0000;" vertex="1" parent="1">
          <mxGeometry x="399" y="161.5" width="29" height="29" as="geometry" />
        </mxCell>
        <mxCell id="AzOrKp5qiF-kefRcxg_7-33" value="" style="endArrow=classic;html=1;rounded=0;exitX=1.003;exitY=0.407;exitDx=0;exitDy=0;exitPerimeter=0;entryX=0;entryY=0.5;entryDx=0;entryDy=0;" edge="1" parent="1" target="AzOrKp5qiF-kefRcxg_7-32">
          <mxGeometry width="50" height="50" relative="1" as="geometry">
            <mxPoint x="310" y="175.71" as="sourcePoint" />
            <mxPoint x="375" y="175.71" as="targetPoint" />
          </mxGeometry>
        </mxCell>
        <mxCell id="AzOrKp5qiF-kefRcxg_7-35" value="" style="endArrow=classic;html=1;rounded=0;exitX=1;exitY=0.5;exitDx=0;exitDy=0;entryX=0.529;entryY=0;entryDx=0;entryDy=0;entryPerimeter=0;" edge="1" parent="1" source="AzOrKp5qiF-kefRcxg_7-25" target="AzOrKp5qiF-kefRcxg_7-27">
          <mxGeometry relative="1" as="geometry">
            <mxPoint x="160" y="340" as="sourcePoint" />
            <mxPoint x="260" y="340" as="targetPoint" />
            <Array as="points">
              <mxPoint x="290" y="295" />
            </Array>
          </mxGeometry>
        </mxCell>
        <mxCell id="AzOrKp5qiF-kefRcxg_7-36" value="登入逾時" style="edgeLabel;resizable=0;html=1;;align=center;verticalAlign=middle;" connectable="0" vertex="1" parent="AzOrKp5qiF-kefRcxg_7-35">
          <mxGeometry relative="1" as="geometry" />
        </mxCell>
        <mxCell id="AzOrKp5qiF-kefRcxg_7-37" value="" style="endArrow=classic;html=1;rounded=0;exitX=0.5;exitY=1;exitDx=0;exitDy=0;entryX=0.003;entryY=0.447;entryDx=0;entryDy=0;entryPerimeter=0;" edge="1" parent="1" source="AzOrKp5qiF-kefRcxg_7-25" target="AzOrKp5qiF-kefRcxg_7-28">
          <mxGeometry relative="1" as="geometry">
            <mxPoint x="200" y="370" as="sourcePoint" />
            <mxPoint x="355" y="435" as="targetPoint" />
            <Array as="points">
              <mxPoint x="75" y="398" />
            </Array>
          </mxGeometry>
        </mxCell>
        <mxCell id="AzOrKp5qiF-kefRcxg_7-38" value="登出" style="edgeLabel;resizable=0;html=1;;align=center;verticalAlign=middle;" connectable="0" vertex="1" parent="AzOrKp5qiF-kefRcxg_7-37">
          <mxGeometry relative="1" as="geometry" />
        </mxCell>
        <mxCell id="AzOrKp5qiF-kefRcxg_7-39" value="" style="endArrow=classic;html=1;rounded=0;exitX=0.453;exitY=1.01;exitDx=0;exitDy=0;exitPerimeter=0;entryX=0.55;entryY=0.04;entryDx=0;entryDy=0;entryPerimeter=0;" edge="1" parent="1" source="AzOrKp5qiF-kefRcxg_7-23" target="AzOrKp5qiF-kefRcxg_7-25">
          <mxGeometry relative="1" as="geometry">
            <mxPoint x="120" y="360" as="sourcePoint" />
            <mxPoint x="75" y="273" as="targetPoint" />
            <Array as="points" />
          </mxGeometry>
        </mxCell>
        <mxCell id="AzOrKp5qiF-kefRcxg_7-40" value="驗證成功" style="edgeLabel;resizable=0;html=1;;align=center;verticalAlign=middle;" connectable="0" vertex="1" parent="AzOrKp5qiF-kefRcxg_7-39">
          <mxGeometry relative="1" as="geometry" />
        </mxCell>
      </root>
    </mxGraphModel>
  </diagram>
</mxfile>
